<svg xmlns="http://www.w3.org/2000/svg" viewBox="0 0 500 500" width="256" height="256">
  <g id="icone">
    <path d="M 496.2 250 c 0 93.2 -51.8 174.3 -128.1 216.1 c -35.1 19.2 -75.3 30.1 -118.1 30.1 s -80.5 -10.2 -114.8 -28.3 C 57.1 426.6 3.8 344.5 3.8 250 C 3.8 114 114 3.8 250 3.8 s 246.2 110.2 246.2 246.2 Z" style="fill: #ffffff !important" fill="#ffffff" stroke-width="0"></path>
    <path d="M 368.1 466.1 c -35.1 19.2 -75.3 30.1 -118.1 30.1 s -80.5 -10.2 -114.8 -28.3 c 1.6 -11.7 3.3 -23.3 7.1 -34.6 c 1.7 -5.2 4.7 -9.3 7.8 -13.6 c 0.7 -4.8 -1 -9.2 -1.4 -13.9 c -0.8 -9.2 3 -17.5 3.9 -26.3 c -2.1 -6.1 -0.2 -12 1.8 -17.5 c 2.6 -7.2 5.9 -14.1 5.6 -21.9 c -0.1 -3.9 3 -7 2.4 -11 c 3.2 -6.4 6.6 -12.7 12 -17.7 c 2.3 -2.2 4.8 -3.6 8.1 -3 c 3.3 0.8 4.1 3.7 5.3 6.2 c 18.7 37.2 67.6 41.6 96.3 19.8 c 13.8 -10.5 22 -23.9 23.9 -41.3 c 0.3 -3.1 0.5 -6.5 2.4 -9.3 c 3.4 -1.4 6.6 -3.8 10.6 -2.5 c 1.5 0.9 2 2.5 2.1 4.1 c 0.5 7.5 5.1 11.7 11.3 15 c 3.3 1.7 7.3 2.4 9.4 6 c -0.1 3 1.6 5.2 3.3 7.5 c 2.4 3.5 4.6 7.2 1.8 11.7 c -2.3 1.9 -4.5 0.7 -6.8 -0.1 c -3.2 -1.2 -6.2 -2.9 -10.3 -3.5 c 1.2 6.7 1.2 13.1 5.2 18.6 c 3 4.1 5.3 8.5 6.3 13.6 c 0.9 4.9 5.2 6.7 8.8 9.4 c 2.5 1.8 7.5 2.2 5.9 7.5 c -0.5 8.4 -1.6 16.8 -1.4 25.2 c 0 3.5 3.3 6.8 4.6 10.4 c 3.6 9.8 4.5 20.1 5.3 30.4 c 0.9 9.7 1.2 19.4 1.3 29.2 Z" style="fill: #c8c8c8 !important" fill="#c8c8c8" stroke-width="0"></path>
    <path d="M 164.8 329.5 c -2.7 9.6 0.2 20.2 -5.7 29.3 c -2.8 4.2 -3.9 9.4 -3.6 14.5 c 0.2 2.9 -1 4.5 -2.7 6.2 c -11.2 8.7 -22.3 17.5 -33.6 26.1 c -7.3 5.6 -15.3 9.8 -24.2 12.3 c -12.7 3.5 -21 -1.9 -23.1 -14.9 c -1.7 -10.8 0.2 -21.4 1.9 -32 c 4.1 -26.1 11.2 -51.3 21.5 -75.7 c 2.8 -6.6 1.5 -14 3.9 -20.8 c 1 -3.1 1.9 -6.2 3.4 -9.1 c 7.5 -14 21.2 -14.8 30.2 -1.7 c 3.2 1 6.6 1.6 10 1.4 c 7.7 -1.8 11.7 3.4 15.8 8.4 c 3.7 4 6.8 8.5 10.1 12.9 c 7.3 9.9 6.5 19.3 -2.1 27.9 c -7.7 7.7 -17.2 12.5 -27.5 14.9 c -13.5 3.3 -18.7 13.1 -22.6 24.6 c -0.3 0.8 -0.4 1.6 0.3 2.4 c 2 0.9 3.3 -0.6 4.8 -1.4 c 11.1 -6 20.3 -14.8 31 -21.4 c 3.6 -2.2 7.1 -5.7 12.2 -3.8 Z" style="fill: #141414 !important" fill="#141414" stroke-width="0"></path>
    <path d="M 303.5 149.2 c 2 3.1 2.7 6.7 2.8 9.9 c 1.1 2.3 3.2 2.4 4.5 3.6 c -2.7 4.7 -5.2 9.5 -8.5 13.7 c -3.8 4.8 -7.2 9.5 -7.2 16.1 c 0 3 -1.9 4.8 -5.3 4.1 c -3.9 -4.7 -6.6 -10.1 -9.5 -15.3 c -2.9 -5.2 -6.6 -7.8 -12.8 -8.6 c -6.8 -0.9 -13.1 -1.4 -19.6 1.1 c -2.6 1 -5.8 1 -8.4 0.2 c -6.1 -1.8 -11.5 -0.6 -16.9 2 c -4.3 2.1 -9 1.9 -13.7 1.8 c -8.5 -0.3 -12.1 2.4 -14.4 10.7 c -1.1 3.9 -2.5 7.6 -4.9 10.8 c -1.9 0.7 -3.8 1.3 -6.2 1.1 c -4.6 -2.2 -8.2 -5.8 -8.7 -11.2 c -0.6 -6.9 -2.6 -13.4 -4.4 -20.1 c -0.8 -5.9 -1.4 -11.6 2.2 -17 c 1.6 -2.4 1.4 -5.4 1.7 -8.3 c 0.8 -9.6 4.5 -17.1 14 -20.9 c 5.2 -2.1 9.1 -7 15.4 -6.4 c 6.5 3.1 13.1 3.6 20 1.1 c 5.3 -1.9 10.5 -4.1 16.2 -4.9 c 2.4 -0.3 4.9 -0.9 7.2 -0.4 c 11.4 2.8 23.4 3.8 33.8 10.1 c 2.3 1.4 4.7 2.3 7.1 3.2 c 7 6.6 12.3 14.5 15.8 23.5 Z" style="fill: #c8c8c8 !important" fill="#c8c8c8" stroke-width="0"></path>
    <path d="M 314.6 161.5 c 26.7 -20.9 69.3 -12.8 88.7 3 c 6.2 5.1 11.4 10.9 14 18.7 c 3.5 10.4 0 16.4 -10.8 18.5 c -15.1 3 -30.3 1.2 -45.4 1 c -1.2 0 -2.4 0.1 -3.6 0 c -3.1 -0.3 -5.6 0 -9.6 -0.7 c -4.5 -16.8 -11.2 -32.8 -31.7 -36.2 c -1.2 -1.2 -2.2 -2.5 -1.5 -4.3 Z" style="fill: #141414 !important" fill="#141414" stroke-width="0"></path>
    <path d="M 135.5 224.8 c -14.3 5.1 -28 11.6 -42.9 15 c -2.2 0.5 -4.3 1 -6.5 1.4 c -11.7 2.1 -17.9 -3.3 -17.4 -15.2 c 0.3 -7.2 2.6 -14.1 6.8 -19.9 c 17.6 -24.3 41.1 -37.1 71.7 -34.9 c 2.2 0.2 4.3 0.9 6.5 1.4 c 1.2 1.8 0.8 3.5 -0.5 5 c -9.5 11.5 -11 25.6 -12.2 39.7 c -0.3 3.7 -0.2 7.6 -5.5 7.6 Z" style="fill: #141414 !important" fill="#141414" stroke-width="0"></path>
    <path d="M 317.1 163.7 c 22.2 2.5 28.4 19.4 33.2 37.4 c 3 13.4 6.5 26.3 5.9 36.7 c 0 0.9 0.7 1.9 1 2.8 c -1.5 2.4 -3 4.8 -4.6 7.3 c -8.6 1.1 -15.5 5.5 -21.2 11.9 c -4.9 0.8 -5.5 -3.4 -6.8 -6.3 c -6.5 -14.6 -9.4 -30.1 -11.7 -45.8 c -1.5 -10.3 -1.1 -20.6 -2.3 -30.9 c -0.5 -3.9 -0.7 -8.1 1 -11.7 c 1.7 -2 3.6 -2.2 5.7 -1.4 Z" style="fill: #c8c8c8 !important" fill="#c8c8c8" stroke-width="0"></path>
    <path d="M 135.5 224.8 c 2.6 -1.7 2.4 -4.5 2.5 -7.1 c 0.3 -8.1 1.5 -16.1 3.4 -24 c 2.1 -8.2 6.2 -15.3 12.3 -21.2 c 3.8 -1.6 7.6 -3.2 11.4 -4.7 c 2 -5.8 -0.6 -11.8 1.9 -17.3 c 3.1 1.3 2.8 4.1 2.8 6.7 c 0 4.1 -0.3 8.1 0.5 12.1 c 4.4 17.9 2.8 36 0.7 53.9 c -1.9 16.9 -6.1 33.4 -10.7 49.7 c -0.6 1 -1.5 1.6 -2.7 1.6 c -4.3 -4.1 -9.4 -7 -14.7 -9.6 c 1 -0.5 1.9 -1.3 1 -2.3 c -8 -9.4 -5.8 -21 -6.9 -31.8 c -0.2 -2.1 0.9 -4.5 -1.4 -6.1 Z" style="fill: #c8c8c8 !important" fill="#c8c8c8" stroke-width="0"></path>
    <path d="M 317.1 163.7 c -2.6 0.5 -3.7 2.2 -3.6 4.8 c 0.6 29.7 3 59.1 15.1 86.8 c 0.7 1.6 1.9 3.1 2.8 4.6 c -1.5 3 -3 5.9 -4.6 8.9 c -5.4 0.5 -10.5 -0.3 -14.5 -4.3 c -1.4 -1.4 -3.5 -1 -4.8 -2.3 c -1 -0.8 -1.4 -1.9 -1.7 -3.2 c -3.4 -18.2 -9 -35.7 -14.8 -53.2 c -1.1 -3.2 -3.4 -6.7 -0.7 -10.3 c 1.8 -0.8 2.2 -2.5 2 -4.1 c -0.9 -6.3 2.1 -10.7 6.3 -15 c 3.5 -3.5 5.4 -8 6.8 -12.4 c 1.7 -1.8 3.6 -1.2 5.4 -1.3 c 1.2 -0.4 2.5 -0.8 3.7 -1.2 c 0.8 0.7 1.7 1.4 2.5 2.2 Z" style="fill: #979797 !important" fill="#979797" stroke-width="0"></path>
    <path d="M 168.6 169.9 c -3.2 -6.2 -0.9 -12.9 -1.6 -19.4 c 4.3 -33.1 30.8 -50.8 60.7 -55.2 c 32.3 -4.8 66.8 16.2 75.3 48.6 c 0.5 1.8 0.9 3.5 0.5 5.4 c -5.6 -7 -11.2 -14 -16.8 -21 c -6.4 -6 -13.8 -10.4 -21.7 -14 c -17.8 -8.3 -35.3 -6.3 -52.6 1.9 c -2.9 1.4 -5.7 2.7 -8.9 2.5 c -7.2 1.5 -13 6.2 -18.9 9.8 c -8 4.9 -8.8 13.8 -7.2 23.3 c -5.9 4.1 -6.4 10.3 -5.2 17 c -0.5 2.8 -2 2.3 -3.7 1.1 Z" style="fill: #141414 !important" fill="#141414" stroke-width="0"></path>
    <path d="M 179.2 262.7 c -1.6 2.5 -3.1 5.2 -4.9 7.5 c -4.7 6 -8.8 6.8 -15.6 3.3 c -1.6 -2.6 -0.4 -5.1 0.3 -7.6 c 7.6 -27.1 12.1 -54.5 10.7 -82.8 c -0.2 -4.4 -0.7 -8.9 -1.1 -13.3 c 1.2 -0.4 2.5 -0.7 3.7 -1.1 c 2.4 6.1 5.5 11.7 5.2 18.8 c -0.3 6.7 4.6 10.2 11.5 10.3 c -0.5 1.5 -1.2 3 0.5 4.2 c 3.6 3.9 2.8 7 -1.6 9.5 c -3.3 13.4 -3.9 27.1 -5.9 40.7 c -0.5 3.6 -0.6 7.3 -2.6 10.5 Z" style="fill: #979797 !important" fill="#979797" stroke-width="0"></path>
    <path d="M 187.7 211.6 c 0.3 -3.2 2.1 -6.2 1.6 -9.5 c 4.8 -7.9 11 -13.5 21 -12.7 c 6.5 0.5 11.1 4.3 15.6 9.6 c 2.5 -7.5 6.3 -13.3 13.2 -16.2 c 4.2 -1.7 8.5 -2.3 13.1 -1.3 c 9.2 2.1 16.1 9.6 17.1 19 c 1 9 -4.4 18.6 -13.1 21.9 c -7.5 2.9 -17.6 3.9 -27.7 -8.8 c -1.8 0.5 -1.5 2.2 -2.1 3.4 c -3.6 7.4 -9.5 11.5 -17.8 11.6 c -8 0.1 -13.9 -3.6 -17.8 -10.6 c -1.2 -2.1 -2.2 -4.3 -3.3 -6.5 Z" style="fill: #e6e6e6 !important" fill="#e6e6e6" stroke-width="0"></path>
    <path d="M 244.8 188.6 c 5 0 9.2 4.2 9 8.7 c -0.2 4.3 -4.4 7.8 -9.2 7.7 c -5.3 0 -9.2 -3.6 -9.1 -8.3 c 0 -4.6 4.2 -8.2 9.4 -8.1 Z" fill="#2f2f2f" stroke-width="0"></path>
    <path d="M 205.3 211.1 c -4.6 0 -8.1 -3.1 -8.2 -7.2 c -0.1 -4.3 3.6 -7.6 8.5 -7.5 c 5 0 8.4 3.3 8.1 7.8 c -0.2 4.1 -3.7 7 -8.4 6.9 Z" style="fill: #2f2f2f !important" fill="#2f2f2f" stroke-width="0"></path>
    <path d="M 290.3 195.5 c 7.7 20.6 14.9 40.7 18.4 62.5 c 0.2 1 0.3 2.6 0.8 3.5 s 3 11.8 2.7 23 c -0.4 16 -4.8 30.5 -15.8 43 c -30.6 34.7 -92.6 31.2 -112.9 -14.8 s -10.5 -24.3 -7.3 -49.7 s 3.5 -26.8 6.3 -39.9 s 5.7 -23 6.4 -25.1 c 2.8 -8 3.3 -12.9 5 -19.7 c 3.5 -1 7.1 -1.9 9.2 -4.6 c 15.1 2.4 17.5 1.2 28.1 -5.7 c 8.8 6.1 17.6 3.5 26.5 -1 c 5.9 2.2 12 4.6 18.9 2.9 c 5 6.2 8.4 12.5 11.9 19.6 s 1.2 4.2 1.9 6.1 Z" style="fill: #141414 !important" fill="#141414" stroke-width="0"></path>
    <path d="M 342.8 307.5 c -3.1 -1.4 -6.2 -2.8 -9.2 -4.2 c -9 -4.2 -14.4 -10.6 -13 -21.2 c -2.2 -2.7 -1.1 -5.2 0.4 -7.8 c 1.3 -2.1 2.3 -4.3 3.5 -6.3 c 0.8 -3.6 1.9 -7 4.7 -9.6 c 5.2 -5.8 11 -10.5 18.6 -12.7 c 3.4 -1 5.3 -5 9.4 -5 c 11.1 -7.3 19.9 -5.4 27.1 5.9 c 1.3 2 2.7 4.2 3.2 6.5 c 3.9 16.8 13.2 31.2 20.4 46.5 c 9.9 21.1 17.7 43 22.7 65.9 c 1.1 5.2 1.4 10.5 0.8 15.7 c -0.9 8.8 -6.5 14 -15.3 14.3 c -11.1 0.4 -21.1 -3.4 -30.6 -8.7 c -9.2 -5.1 -18.3 -10.5 -27.4 -15.8 c -5.4 -3.5 -10.9 -7 -16.8 -10.7 c -1 -7.8 -3.1 -15.6 -9.8 -21 c -0.9 -8 -1.4 -16 -7.3 -23.2 c 9.3 1.2 16.1 6.8 24.2 8.9 s 8.7 3.3 11.4 4.7 c 7.7 4.3 12.6 5.8 21.4 8.2 c -1.1 -10.2 -11.4 -21.7 -20.9 -23.4 c -4.2 -0.7 -8.3 -1.6 -12.4 -2.8 c -2.4 -0.6 -4.8 -1.3 -5.2 -4.3 Z" style="fill: #141414 !important" fill="#141414" stroke-width="0"></path>
    <path d="M 269.3 203.4 c 0 12.1 -9.8 21.9 -21.9 21.9 s -15.9 -4.8 -19.5 -11.9 c -1.9 9.3 -10.1 16.4 -20 16.4 s -20.4 -9.1 -20.4 -20.4 s 9.1 -20.4 20.4 -20.4 s 14.5 4.3 18 10.7 c 1.8 -10.3 10.8 -18.1 21.5 -18.1 s 21.9 9.8 21.9 21.9 Z" style="fill: #e6e6e6 !important" fill="#e6e6e6" stroke-width="0"></path>
    <circle cx="205.1" cy="202.7" r="8.2" fill="#141414" stroke-width="0"></circle>
    <circle cx="244.5" cy="196.3" r="8.2" fill="#141414" stroke-width="0"></circle>
  </g>
</svg>